<?xml version="1.0" encoding="UTF-8" standalone="no"?>
<!DOCTYPE svg PUBLIC "-//W3C//DTD SVG 1.1//EN" "http://www.w3.org/Graphics/SVG/1.1/DTD/svg11.dtd">
<svg width="100%" height="100%" viewBox="0 0 1754 1241" version="1.1" xmlns="http://www.w3.org/2000/svg" xmlns:xlink="http://www.w3.org/1999/xlink" xml:space="preserve" xmlns:serif="http://www.serif.com/" style="fill-rule:evenodd;clip-rule:evenodd;stroke-linejoin:round;stroke-miterlimit:2;">
    <rect id="Artboard1" x="0" y="0" width="1753.94" height="1240.16" style="fill:none;"/>
    <g id="Artboard11" serif:id="Artboard1">
        <g transform="matrix(1,0,0,1,-294.162,-2.6453)">
            <path d="M883.431,795.389L882.839,773.522L878.029,773.653L878.263,782.306L869.391,782.546L869.157,773.893L864.346,774.023L864.938,795.89L869.749,795.76L869.511,786.982L878.383,786.742L878.62,795.52L883.431,795.389ZM856.93,788.955L856.938,788.893C857.068,787.944 857.03,787.108 856.823,786.386C856.617,785.664 856.254,785.01 855.735,784.424C855.216,783.837 854.553,783.305 853.746,782.827C852.938,782.349 852.007,781.89 850.953,781.452C850.058,781.077 849.319,780.756 848.735,780.487C848.151,780.218 847.698,779.956 847.376,779.702C847.053,779.447 846.842,779.182 846.743,778.906C846.644,778.629 846.619,778.316 846.667,777.965L846.675,777.903C846.748,777.366 847.042,776.949 847.556,776.651C848.07,776.353 848.791,776.268 849.72,776.395C850.649,776.522 851.551,776.84 852.428,777.348C853.305,777.857 854.183,778.508 855.063,779.301L858.031,776.048C857.037,775.008 855.907,774.16 854.641,773.503C853.374,772.846 851.946,772.41 850.357,772.192C849.242,772.04 848.199,772.055 847.228,772.238C846.257,772.421 845.397,772.755 844.647,773.242C843.897,773.728 843.282,774.343 842.802,775.087C842.322,775.831 842.014,776.698 841.879,777.689L841.87,777.751C841.724,778.824 841.771,779.746 842.013,780.515C842.255,781.284 842.652,781.953 843.205,782.523C843.758,783.092 844.456,783.603 845.299,784.054C846.141,784.506 847.091,784.941 848.148,785.358C849.025,785.71 849.734,786.027 850.273,786.311C850.813,786.595 851.228,786.862 851.52,787.112C851.812,787.362 851.998,787.614 852.079,787.867C852.16,788.12 852.18,788.401 852.138,788.71L852.129,788.772C852.042,789.412 851.7,789.875 851.103,790.162C850.507,790.448 849.713,790.524 848.723,790.389C847.484,790.219 846.376,789.826 845.399,789.209C844.421,788.592 843.492,787.813 842.611,786.873L839.332,789.863C840.472,791.217 841.798,792.287 843.31,793.071C844.822,793.856 846.403,794.361 848.055,794.587C849.231,794.748 850.325,794.745 851.336,794.578C852.347,794.411 853.242,794.092 854.022,793.62C854.801,793.148 855.444,792.521 855.95,791.739C856.457,790.956 856.783,790.028 856.93,788.955ZM898.28,793.239L894.821,771.639L890.069,772.4L893.528,794L898.28,793.239ZM832.413,791.83L829.963,768.013L825.723,766.702L810.26,784.982L814.947,786.431L818.307,782.334L827.144,785.066L827.606,790.344L832.413,791.83ZM926.343,774.451L926.325,774.391C925.862,772.899 925.155,771.586 924.203,770.452C923.252,769.318 922.134,768.422 920.85,767.762C919.566,767.103 918.159,766.699 916.63,766.552C915.101,766.404 913.531,766.58 911.919,767.08C910.307,767.58 908.908,768.325 907.721,769.315C906.533,770.304 905.6,771.445 904.921,772.735C904.241,774.026 903.825,775.409 903.672,776.885C903.519,778.361 903.674,779.845 904.137,781.338L904.155,781.397C904.618,782.89 905.325,784.203 906.277,785.336C907.228,786.47 908.346,787.367 909.63,788.026C910.915,788.686 912.321,789.089 913.85,789.237C915.379,789.384 916.949,789.208 918.561,788.708C920.173,788.208 921.572,787.464 922.76,786.474C923.947,785.484 924.88,784.344 925.56,783.053C926.239,781.763 926.655,780.38 926.808,778.903C926.961,777.427 926.806,775.943 926.343,774.451ZM921.556,776.001C921.834,776.896 921.941,777.785 921.876,778.666C921.811,779.548 921.598,780.372 921.236,781.139C920.874,781.905 920.357,782.578 919.686,783.157C919.015,783.736 918.222,784.168 917.306,784.451C916.371,784.741 915.467,784.831 914.592,784.721C913.718,784.61 912.905,784.344 912.153,783.923C911.401,783.502 910.747,782.941 910.192,782.241C909.636,781.541 909.22,780.743 908.942,779.847L908.924,779.788C908.646,778.892 908.54,778.004 908.604,777.122C908.669,776.24 908.882,775.416 909.244,774.65C909.606,773.883 910.118,773.212 910.779,772.636C911.44,772.06 912.239,771.627 913.174,771.337C914.089,771.053 914.989,770.965 915.873,771.073C916.757,771.18 917.575,771.444 918.327,771.865C919.079,772.287 919.733,772.847 920.288,773.547C920.844,774.248 921.26,775.046 921.538,775.941L921.556,776.001ZM707.707,710.656C725.249,623.558 685.706,584.304 685.706,584.304L677.94,577.362C686.147,567.266 696.749,565.367 711.408,577.362C711.408,577.362 750.431,616.008 729.132,718.282C729.132,718.282 760.906,726.045 796.388,722.882C819.166,720.852 851.532,709.267 867.636,690.764C873.733,695.62 876.643,702.086 875.635,708.862C873.777,721.338 830.878,742.597 802.938,745.087C763.002,748.646 726.49,736.913 724.101,736.194C717.713,752.381 695.512,800.275 649.532,775.288C649.532,775.288 630.205,765.335 632.769,741.634C633.652,733.471 636.399,724.052 642.963,717.288C668.431,691.045 706.817,710.434 707.707,710.656ZM955.036,772.2L944.825,752.855L940.624,755.072L946.911,766.983L931.559,759.857L927.635,761.928L937.846,781.274L942.047,779.056L935.555,766.758L951.416,774.111L955.036,772.2ZM826.758,780.498L821.204,778.782L826.076,772.863L826.758,780.498ZM811.936,766.578L813.881,762.659L798.962,755.253L789.235,774.846L793.546,776.986L797.311,769.401L806.66,774.042L808.606,770.123L799.257,765.482L801.327,761.311L811.936,766.578ZM782.528,756.612L784.389,758.091L786.762,758.237L785.93,760.464L786.524,762.766L784.149,762.663L782.144,763.94L781.508,761.649L779.674,760.136L781.656,758.824L782.528,756.612ZM702.051,728.496C694.171,725.199 673.691,715.319 656.915,728.496C653.447,731.221 649.156,739.193 652.679,743.635C674.472,771.121 695.796,740.121 702.051,728.496ZM982.063,720.916L978.471,724.439L985.606,738.187L971.689,731.002L968.743,733.89L975.655,747.946L962.049,740.542L958.367,744.152L979.125,754.653L982.115,751.722L975.619,738.045L989.166,744.808L992.155,741.876L982.063,720.916ZM1005.48,705.105L1005.43,705.071C1004.13,704.204 1002.75,703.63 1001.3,703.35C999.846,703.07 998.413,703.078 997.001,703.376C995.588,703.673 994.242,704.247 992.962,705.096C991.682,705.945 990.574,707.072 989.638,708.476C988.702,709.88 988.085,711.341 987.787,712.857C987.49,714.374 987.484,715.848 987.77,717.278C988.056,718.708 988.605,720.044 989.416,721.286C990.228,722.529 991.284,723.583 992.584,724.45L992.636,724.485C993.936,725.351 995.313,725.925 996.766,726.205C998.219,726.486 999.652,726.477 1001.07,726.179C1002.48,725.882 1003.82,725.308 1005.1,724.459C1006.38,723.61 1007.49,722.483 1008.43,721.079C1009.36,719.675 1009.98,718.215 1010.28,716.698C1010.58,715.181 1010.58,713.708 1010.3,712.278C1010.01,710.847 1009.46,709.511 1008.65,708.269C1007.84,707.027 1006.78,705.972 1005.48,705.105ZM1002.74,709.326C1003.52,709.846 1004.17,710.469 1004.67,711.194C1005.18,711.919 1005.53,712.693 1005.73,713.517C1005.94,714.34 1005.96,715.188 1005.8,716.061C1005.65,716.933 1005.3,717.768 1004.77,718.565C1004.23,719.38 1003.58,720.02 1002.83,720.485C1002.09,720.95 1001.29,721.256 1000.44,721.404C999.587,721.551 998.726,721.528 997.854,721.334C996.981,721.141 996.155,720.784 995.375,720.264L995.323,720.229C994.543,719.709 993.9,719.086 993.395,718.361C992.889,717.636 992.535,716.862 992.333,716.038C992.131,715.215 992.105,714.371 992.255,713.508C992.405,712.644 992.752,711.805 993.295,710.99C993.827,710.192 994.47,709.557 995.224,709.083C995.978,708.609 996.78,708.299 997.629,708.152C998.478,708.004 999.339,708.027 1000.21,708.221C1001.08,708.415 1001.91,708.771 1002.69,709.291L1002.74,709.326ZM983.465,567.492C983.767,566.776 984.163,566.032 984.679,565.27C986.043,563.257 988.351,558.453 994.728,557.6C997.502,543.119 1000.18,528.644 1004.41,514.091C1005.07,511.832 1007.08,510.228 1009.43,510.074C1015.57,509.66 1020.59,509.763 1027.39,512.246L1028.1,521.329C1031.2,526.229 1047.22,561.945 1046.55,577.595C1045.95,591.545 1038.3,604.464 1026.81,609.127C1026.81,609.127 1013.69,615.165 1002.9,612.67C988.733,609.393 983.584,598.243 982.215,587.486C980.672,597.806 977.358,610.263 970.341,620.479C964.438,629.075 956.248,634.149 947.871,638.682C927.871,649.504 910.717,634.458 910.717,634.458C910.536,634.103 909.793,632.312 908.787,629.647C905.079,646.559 893.393,674.352 856.777,668.625C852.735,667.993 845.622,661.507 841.351,652.048C841.413,654.716 841.304,657.271 840.971,659.61C838.324,678.156 827.827,693.458 808.89,685.894C803.917,683.907 800.77,679.039 798.99,673.397C796.482,665.451 795.461,665.101 793.943,647.634C792.658,632.857 792.138,623.218 789,626.142C781.883,632.774 776.762,644.112 774.061,651.196L774.077,651.435C774.357,655.551 774.679,659.664 775.071,663.771C775.366,666.851 775.698,669.928 776.088,672.998C776.465,675.967 776.894,678.93 777.412,681.877C777.858,684.413 778.367,686.941 779.001,689.437C779.295,690.596 779.617,691.749 779.982,692.888C780.308,693.91 780.669,694.922 781.085,695.91C781.407,696.674 781.763,697.425 782.174,698.145C782.516,698.745 782.899,699.326 783.346,699.854C783.47,700 783.6,700.143 783.735,700.279C783.776,700.321 783.818,700.362 783.86,700.402C783.874,700.415 783.888,700.428 783.902,700.442C783.908,700.448 783.914,700.456 783.922,700.461C783.924,700.462 783.999,700.497 784.001,700.498C784.052,700.522 784.103,700.545 784.155,700.568C784.305,700.635 784.456,700.698 784.609,700.757C785.207,700.988 785.831,701.155 786.47,701.221C786.845,701.26 787.224,701.264 787.6,701.23C787.725,701.219 787.85,701.204 787.974,701.185C788.012,701.179 788.049,701.173 788.087,701.166C788.096,701.165 788.106,701.163 788.115,701.161C788.125,701.16 788.151,701.151 788.143,701.156C781.518,705.07 774.901,708.998 768.262,712.889C768.241,712.901 768.225,712.856 768.206,712.84C768.169,712.808 768.131,712.776 768.094,712.744C767.888,712.565 767.685,712.383 767.484,712.198C766.627,711.407 765.82,710.562 765.061,709.676C763.583,707.951 762.288,706.073 761.142,704.113C759.8,701.819 758.658,699.41 757.66,696.947C756.837,694.915 756.113,692.843 755.463,690.749C754.752,688.456 754.132,686.136 753.579,683.801C752.545,679.426 751.749,674.996 751.103,670.548C750.863,668.894 750.646,667.237 750.442,665.579C749.8,660.363 749.279,655.133 748.857,649.895C748.411,644.358 748.076,638.813 747.835,633.263C747.594,627.694 747.447,622.12 747.386,616.546C747.33,611.363 747.346,606.179 747.436,600.997C747.517,596.32 747.655,591.644 747.865,586.97C747.934,585.435 748.011,583.899 748.099,582.365C748.131,581.799 748.165,581.234 748.202,580.669C748.212,580.504 748.223,580.338 748.234,580.172C748.238,580.12 748.241,580.067 748.245,580.015C748.248,579.973 748.249,579.93 748.254,579.888C748.651,576.439 748.998,572.983 749.446,569.54C749.446,569.539 749.788,569.319 749.788,569.319C750.073,569.136 750.358,568.954 750.644,568.773C751.749,568.076 752.866,567.399 754.002,566.754C754.491,566.476 754.983,566.205 755.479,565.941C758.805,564.168 762.332,562.699 766.049,561.997C766.667,561.88 767.289,561.784 767.913,561.712C769.048,561.581 770.193,561.526 771.335,561.553C771.626,561.56 771.916,561.573 772.206,561.59C772.27,561.594 772.335,561.598 772.4,561.603C772.432,561.605 772.474,561.586 772.497,561.609C772.518,561.631 772.496,561.67 772.495,561.701C772.492,561.857 772.488,562.014 772.485,562.17C772.474,562.712 772.464,563.253 772.454,563.795C772.42,565.7 772.392,567.605 772.368,569.511C772.265,577.817 772.238,586.124 772.282,594.431C772.333,604.07 772.484,613.708 772.767,623.344L772.771,623.487C773.168,622.975 773.589,622.482 774.035,622.013C781.422,614.234 785.664,605.024 800.015,606.1C819.895,607.589 818.442,654.209 818.737,656.108C819.987,664.168 831.147,661.036 833.667,619.255C833.679,617.769 833.752,616.246 833.9,614.7C833.907,614.548 833.913,614.39 833.92,614.232C833.92,614.232 833.927,614.253 833.941,614.295C835.209,602.084 841.2,588.421 858.747,578.977C858.747,578.977 871.652,573.91 878.63,578.977C909.469,601.369 877.585,639.845 858.747,635.187C857.168,640.81 862.633,646.525 864.854,647.506C869.957,649.76 878.752,647.809 883.114,644.719C892.584,638.011 896.98,621.35 896.98,621.35L900.532,597.102L900.795,597.637C900.703,580.869 909.271,554.776 932.235,549.212C938.959,547.583 943.915,548.791 949.252,551.197C958.59,555.407 960.175,574.044 960.141,575.412C960.061,578.637 961.038,585.504 955.309,593.688C945.211,608.111 927.162,605.058 927.162,605.058C927.136,606.043 926.993,608.384 926.909,610.775C926.771,614.888 929.419,618.58 933.359,619.768C939.718,621.77 947.095,621.725 957.377,610.395C968.519,598.117 970.166,574.733 970.352,565.056C970.381,562.492 972.161,560.281 974.66,559.706C974.659,559.702 974.66,559.702 974.66,559.702C977.637,559.016 980.678,560.561 981.88,563.369C982.697,565.28 983.445,567.026 983.445,567.026C983.445,567.026 983.454,567.186 983.465,567.492ZM1026.35,685.877L1017.05,687.625C1017.13,686.138 1016.84,684.774 1016.16,683.534C1015.49,682.294 1014.35,681.318 1012.72,680.605L1012.67,680.58C1010.59,679.666 1008.68,679.617 1006.93,680.431C1005.18,681.245 1003.79,682.844 1002.74,685.228L998.714,694.383L1018.74,703.185L1020.68,698.779L1014.27,695.962L1015.79,692.501L1024.08,691.026L1026.35,685.877ZM1010.99,685.169C1011.85,685.546 1012.41,686.139 1012.67,686.947C1012.93,687.755 1012.82,688.702 1012.34,689.789L1010.38,694.252L1004.63,691.725L1006.55,687.348C1007.03,686.261 1007.64,685.517 1008.39,685.116C1009.13,684.715 1009.98,684.724 1010.93,685.144L1010.99,685.169ZM1033.16,662.755L1028.94,661.606L1026.08,672.13L1009.19,667.534L1007.93,672.177L1029.04,677.922L1033.16,662.755ZM1026.35,633.28L1026.29,633.273C1024.76,633.097 1023.3,633.212 1021.92,633.62C1020.54,634.028 1019.31,634.688 1018.22,635.6C1017.13,636.513 1016.23,637.646 1015.51,639.001C1014.8,640.355 1014.35,641.881 1014.15,643.578L1013.18,652.054L1034.91,654.555L1035.88,646.08C1036.08,644.382 1035.98,642.793 1035.58,641.311C1035.19,639.829 1034.56,638.52 1033.71,637.383C1032.85,636.247 1031.8,635.323 1030.54,634.612C1029.28,633.9 1027.88,633.457 1026.35,633.28ZM1025.84,638.286C1026.81,638.398 1027.67,638.659 1028.42,639.071C1029.17,639.482 1029.8,640.005 1030.31,640.641C1030.83,641.277 1031.19,642.017 1031.41,642.859C1031.63,643.702 1031.68,644.61 1031.57,645.583L1031.14,649.277L1018.04,647.769L1018.47,644.075C1018.58,643.102 1018.84,642.231 1019.26,641.461C1019.67,640.69 1020.2,640.054 1020.85,639.552C1021.49,639.049 1022.24,638.684 1023.08,638.456C1023.92,638.228 1024.82,638.169 1025.77,638.278L1025.84,638.286ZM1023.62,618.995L1025.49,620.474L1027.86,620.62L1027.03,622.847L1027.62,625.149L1025.25,625.046L1023.24,626.323L1022.61,624.032L1020.77,622.519L1022.75,621.207L1023.62,618.995ZM876.062,614.801C882.329,596.636 873.285,589.936 867.594,592.158C856.722,598.773 857.037,616.098 856.777,624.387L856.909,624.379C863.286,623.969 874.015,620.733 876.062,614.801ZM942.782,587.44C944.909,584.199 952.141,565.944 939.815,563.99C935.794,563.353 928.175,565.876 927.162,596.471C927.162,596.471 936.236,597.413 942.782,587.44ZM1020.18,563.708C1020.18,563.708 1017.68,552.099 1014.64,549.722C1014.23,549.399 1012.42,548.845 1012.28,549.722C1011.82,552.71 1010.78,555.815 1010.79,557.6C1010.8,558.322 1012.59,558.845 1013.09,562.212C1013.83,567.227 1006.08,564.799 1003.81,575.184C1003.12,578.304 1004.87,586.025 1006.21,587.439C1007.17,588.461 1010.42,588.558 1012.28,588.381C1014.52,587.935 1019.44,585.847 1020.56,576.306C1020.99,572.561 1020.31,565.271 1020.18,563.708ZM973.457,508.789C973.457,508.789 981.619,488.394 980.765,487.707C951.053,463.843 913.326,449.558 872.289,449.558C806.403,449.558 749.05,486.379 719.702,540.548L736.325,553.695C761.585,504.266 813.012,470.392 872.289,470.392C911.086,470.392 946.521,484.903 973.457,508.789ZM843.903,517.773L853.298,523.679L864.382,523.132L861.669,533.892L865.614,544.264L854.542,545.009L845.897,551.966L841.767,541.666L832.479,535.594L840.998,528.483L843.903,517.773Z" style="fill:rgb(23,23,20);"/>
        </g>
        <g transform="matrix(0.324669,0,0,0.324669,879.954,417.9)">
            <path d="M883.431,795.389L882.839,773.522L878.029,773.653L878.263,782.306L869.391,782.546L869.157,773.893L864.346,774.023L864.938,795.89L869.749,795.76L869.511,786.982L878.383,786.742L878.62,795.52L883.431,795.389ZM856.93,788.955L856.938,788.893C857.068,787.944 857.03,787.108 856.823,786.386C856.617,785.664 856.254,785.01 855.735,784.424C855.216,783.837 854.553,783.305 853.746,782.827C852.938,782.349 852.007,781.89 850.953,781.452C850.058,781.077 849.319,780.756 848.735,780.487C848.151,780.218 847.698,779.956 847.376,779.702C847.053,779.447 846.842,779.182 846.743,778.906C846.644,778.629 846.619,778.316 846.667,777.965L846.675,777.903C846.748,777.366 847.042,776.949 847.556,776.651C848.07,776.353 848.791,776.268 849.72,776.395C850.649,776.522 851.551,776.84 852.428,777.348C853.305,777.857 854.183,778.508 855.063,779.301L858.031,776.048C857.037,775.008 855.907,774.16 854.641,773.503C853.374,772.846 851.946,772.41 850.357,772.192C849.242,772.04 848.199,772.055 847.228,772.238C846.257,772.421 845.397,772.755 844.647,773.242C843.897,773.728 843.282,774.343 842.802,775.087C842.322,775.831 842.014,776.698 841.879,777.689L841.87,777.751C841.724,778.824 841.771,779.746 842.013,780.515C842.255,781.284 842.652,781.953 843.205,782.523C843.758,783.092 844.456,783.603 845.299,784.054C846.141,784.506 847.091,784.941 848.148,785.358C849.025,785.71 849.734,786.027 850.273,786.311C850.813,786.595 851.228,786.862 851.52,787.112C851.812,787.362 851.998,787.614 852.079,787.867C852.16,788.12 852.18,788.401 852.138,788.71L852.129,788.772C852.042,789.412 851.7,789.875 851.103,790.162C850.507,790.448 849.713,790.524 848.723,790.389C847.484,790.219 846.376,789.826 845.399,789.209C844.421,788.592 843.492,787.813 842.611,786.873L839.332,789.863C840.472,791.217 841.798,792.287 843.31,793.071C844.822,793.856 846.403,794.361 848.055,794.587C849.231,794.748 850.325,794.745 851.336,794.578C852.347,794.411 853.242,794.092 854.022,793.62C854.801,793.148 855.444,792.521 855.95,791.739C856.457,790.956 856.783,790.028 856.93,788.955ZM898.28,793.239L894.821,771.639L890.069,772.4L893.528,794L898.28,793.239ZM832.413,791.83L829.963,768.013L825.723,766.702L810.26,784.982L814.947,786.431L818.307,782.334L827.144,785.066L827.606,790.344L832.413,791.83ZM926.343,774.451L926.325,774.391C925.862,772.899 925.155,771.586 924.203,770.452C923.252,769.318 922.134,768.422 920.85,767.762C919.566,767.103 918.159,766.699 916.63,766.552C915.101,766.404 913.531,766.58 911.919,767.08C910.307,767.58 908.908,768.325 907.721,769.315C906.533,770.304 905.6,771.445 904.921,772.735C904.241,774.026 903.825,775.409 903.672,776.885C903.519,778.361 903.674,779.845 904.137,781.338L904.155,781.397C904.618,782.89 905.325,784.203 906.277,785.336C907.228,786.47 908.346,787.367 909.63,788.026C910.915,788.686 912.321,789.089 913.85,789.237C915.379,789.384 916.949,789.208 918.561,788.708C920.173,788.208 921.572,787.464 922.76,786.474C923.947,785.484 924.88,784.344 925.56,783.053C926.239,781.763 926.655,780.38 926.808,778.903C926.961,777.427 926.806,775.943 926.343,774.451ZM921.556,776.001C921.834,776.896 921.941,777.785 921.876,778.666C921.811,779.548 921.598,780.372 921.236,781.139C920.874,781.905 920.357,782.578 919.686,783.157C919.015,783.736 918.222,784.168 917.306,784.451C916.371,784.741 915.467,784.831 914.592,784.721C913.718,784.61 912.905,784.344 912.153,783.923C911.401,783.502 910.747,782.941 910.192,782.241C909.636,781.541 909.22,780.743 908.942,779.847L908.924,779.788C908.646,778.892 908.54,778.004 908.604,777.122C908.669,776.24 908.882,775.416 909.244,774.65C909.606,773.883 910.118,773.212 910.779,772.636C911.44,772.06 912.239,771.627 913.174,771.337C914.089,771.053 914.989,770.965 915.873,771.073C916.757,771.18 917.575,771.444 918.327,771.865C919.079,772.287 919.733,772.847 920.288,773.547C920.844,774.248 921.26,775.046 921.538,775.941L921.556,776.001ZM707.707,710.656C725.249,623.558 685.706,584.304 685.706,584.304L677.94,577.362C686.147,567.266 696.749,565.367 711.408,577.362C711.408,577.362 750.431,616.008 729.132,718.282C729.132,718.282 760.906,726.045 796.388,722.882C819.166,720.852 851.532,709.267 867.636,690.764C873.733,695.62 876.643,702.086 875.635,708.862C873.777,721.338 830.878,742.597 802.938,745.087C763.002,748.646 726.49,736.913 724.101,736.194C717.713,752.381 695.512,800.275 649.532,775.288C649.532,775.288 630.205,765.335 632.769,741.634C633.652,733.471 636.399,724.052 642.963,717.288C668.431,691.045 706.817,710.434 707.707,710.656ZM955.036,772.2L944.825,752.855L940.624,755.072L946.911,766.983L931.559,759.857L927.635,761.928L937.846,781.274L942.047,779.056L935.555,766.758L951.416,774.111L955.036,772.2ZM826.758,780.498L821.204,778.782L826.076,772.863L826.758,780.498ZM811.936,766.578L813.881,762.659L798.962,755.253L789.235,774.846L793.546,776.986L797.311,769.401L806.66,774.042L808.606,770.123L799.257,765.482L801.327,761.311L811.936,766.578ZM782.528,756.612L784.389,758.091L786.762,758.237L785.93,760.464L786.524,762.766L784.149,762.663L782.144,763.94L781.508,761.649L779.674,760.136L781.656,758.824L782.528,756.612ZM702.051,728.496C694.171,725.199 673.691,715.319 656.915,728.496C653.447,731.221 649.156,739.193 652.679,743.635C674.472,771.121 695.796,740.121 702.051,728.496ZM982.063,720.916L978.471,724.439L985.606,738.187L971.689,731.002L968.743,733.89L975.655,747.946L962.049,740.542L958.367,744.152L979.125,754.653L982.115,751.722L975.619,738.045L989.166,744.808L992.155,741.876L982.063,720.916ZM1005.48,705.105L1005.43,705.071C1004.13,704.204 1002.75,703.63 1001.3,703.35C999.846,703.07 998.413,703.078 997.001,703.376C995.588,703.673 994.242,704.247 992.962,705.096C991.682,705.945 990.574,707.072 989.638,708.476C988.702,709.88 988.085,711.341 987.787,712.857C987.49,714.374 987.484,715.848 987.77,717.278C988.056,718.708 988.605,720.044 989.416,721.286C990.228,722.529 991.284,723.583 992.584,724.45L992.636,724.485C993.936,725.351 995.313,725.925 996.766,726.205C998.219,726.486 999.652,726.477 1001.07,726.179C1002.48,725.882 1003.82,725.308 1005.1,724.459C1006.38,723.61 1007.49,722.483 1008.43,721.079C1009.36,719.675 1009.98,718.215 1010.28,716.698C1010.58,715.181 1010.58,713.708 1010.3,712.278C1010.01,710.847 1009.46,709.511 1008.65,708.269C1007.84,707.027 1006.78,705.972 1005.48,705.105ZM1002.74,709.326C1003.52,709.846 1004.17,710.469 1004.67,711.194C1005.18,711.919 1005.53,712.693 1005.73,713.517C1005.94,714.34 1005.96,715.188 1005.8,716.061C1005.65,716.933 1005.3,717.768 1004.77,718.565C1004.23,719.38 1003.58,720.02 1002.83,720.485C1002.09,720.95 1001.29,721.256 1000.44,721.404C999.587,721.551 998.726,721.528 997.854,721.334C996.981,721.141 996.155,720.784 995.375,720.264L995.323,720.229C994.543,719.709 993.9,719.086 993.395,718.361C992.889,717.636 992.535,716.862 992.333,716.038C992.131,715.215 992.105,714.371 992.255,713.508C992.405,712.644 992.752,711.805 993.295,710.99C993.827,710.192 994.47,709.557 995.224,709.083C995.978,708.609 996.78,708.299 997.629,708.152C998.478,708.004 999.339,708.027 1000.21,708.221C1001.08,708.415 1001.91,708.771 1002.69,709.291L1002.74,709.326ZM983.465,567.492C983.767,566.776 984.163,566.032 984.679,565.27C986.043,563.257 988.351,558.453 994.728,557.6C997.502,543.119 1000.18,528.644 1004.41,514.091C1005.07,511.832 1007.08,510.228 1009.43,510.074C1015.57,509.66 1020.59,509.763 1027.39,512.246L1028.1,521.329C1031.2,526.229 1047.22,561.945 1046.55,577.595C1045.95,591.545 1038.3,604.464 1026.81,609.127C1026.81,609.127 1013.69,615.165 1002.9,612.67C988.733,609.393 983.584,598.243 982.215,587.486C980.672,597.806 977.358,610.263 970.341,620.479C964.438,629.075 956.248,634.149 947.871,638.682C927.871,649.504 910.717,634.458 910.717,634.458C910.536,634.103 909.793,632.312 908.787,629.647C905.079,646.559 893.393,674.352 856.777,668.625C852.735,667.993 845.622,661.507 841.351,652.048C841.413,654.716 841.304,657.271 840.971,659.61C838.324,678.156 827.827,693.458 808.89,685.894C803.917,683.907 800.77,679.039 798.99,673.397C796.482,665.451 795.461,665.101 793.943,647.634C792.658,632.857 792.138,623.218 789,626.142C781.883,632.774 776.762,644.112 774.061,651.196L774.077,651.435C774.357,655.551 774.679,659.664 775.071,663.771C775.366,666.851 775.698,669.928 776.088,672.998C776.465,675.967 776.894,678.93 777.412,681.877C777.858,684.413 778.367,686.941 779.001,689.437C779.295,690.596 779.617,691.749 779.982,692.888C780.308,693.91 780.669,694.922 781.085,695.91C781.407,696.674 781.763,697.425 782.174,698.145C782.516,698.745 782.899,699.326 783.346,699.854C783.47,700 783.6,700.143 783.735,700.279C783.776,700.321 783.818,700.362 783.86,700.402C783.874,700.415 783.888,700.428 783.902,700.442C783.908,700.448 783.914,700.456 783.922,700.461C783.924,700.462 783.999,700.497 784.001,700.498C784.052,700.522 784.103,700.545 784.155,700.568C784.305,700.635 784.456,700.698 784.609,700.757C785.207,700.988 785.831,701.155 786.47,701.221C786.845,701.26 787.224,701.264 787.6,701.23C787.725,701.219 787.85,701.204 787.974,701.185C788.012,701.179 788.049,701.173 788.087,701.166C788.096,701.165 788.106,701.163 788.115,701.161C788.125,701.16 788.151,701.151 788.143,701.156C781.518,705.07 774.901,708.998 768.262,712.889C768.241,712.901 768.225,712.856 768.206,712.84C768.169,712.808 768.131,712.776 768.094,712.744C767.888,712.565 767.685,712.383 767.484,712.198C766.627,711.407 765.82,710.562 765.061,709.676C763.583,707.951 762.288,706.073 761.142,704.113C759.8,701.819 758.658,699.41 757.66,696.947C756.837,694.915 756.113,692.843 755.463,690.749C754.752,688.456 754.132,686.136 753.579,683.801C752.545,679.426 751.749,674.996 751.103,670.548C750.863,668.894 750.646,667.237 750.442,665.579C749.8,660.363 749.279,655.133 748.857,649.895C748.411,644.358 748.076,638.813 747.835,633.263C747.594,627.694 747.447,622.12 747.386,616.546C747.33,611.363 747.346,606.179 747.436,600.997C747.517,596.32 747.655,591.644 747.865,586.97C747.934,585.435 748.011,583.899 748.099,582.365C748.131,581.799 748.165,581.234 748.202,580.669C748.212,580.504 748.223,580.338 748.234,580.172C748.238,580.12 748.241,580.067 748.245,580.015C748.248,579.973 748.249,579.93 748.254,579.888C748.651,576.439 748.998,572.983 749.446,569.54C749.446,569.539 749.788,569.319 749.788,569.319C750.073,569.136 750.358,568.954 750.644,568.773C751.749,568.076 752.866,567.399 754.002,566.754C754.491,566.476 754.983,566.205 755.479,565.941C758.805,564.168 762.332,562.699 766.049,561.997C766.667,561.88 767.289,561.784 767.913,561.712C769.048,561.581 770.193,561.526 771.335,561.553C771.626,561.56 771.916,561.573 772.206,561.59C772.27,561.594 772.335,561.598 772.4,561.603C772.432,561.605 772.474,561.586 772.497,561.609C772.518,561.631 772.496,561.67 772.495,561.701C772.492,561.857 772.488,562.014 772.485,562.17C772.474,562.712 772.464,563.253 772.454,563.795C772.42,565.7 772.392,567.605 772.368,569.511C772.265,577.817 772.238,586.124 772.282,594.431C772.333,604.07 772.484,613.708 772.767,623.344L772.771,623.487C773.168,622.975 773.589,622.482 774.035,622.013C781.422,614.234 785.664,605.024 800.015,606.1C819.895,607.589 818.442,654.209 818.737,656.108C819.987,664.168 831.147,661.036 833.667,619.255C833.679,617.769 833.752,616.246 833.9,614.7C833.907,614.548 833.913,614.39 833.92,614.232C833.92,614.232 833.927,614.253 833.941,614.295C835.209,602.084 841.2,588.421 858.747,578.977C858.747,578.977 871.652,573.91 878.63,578.977C909.469,601.369 877.585,639.845 858.747,635.187C857.168,640.81 862.633,646.525 864.854,647.506C869.957,649.76 878.752,647.809 883.114,644.719C892.584,638.011 896.98,621.35 896.98,621.35L900.532,597.102L900.795,597.637C900.703,580.869 909.271,554.776 932.235,549.212C938.959,547.583 943.915,548.791 949.252,551.197C958.59,555.407 960.175,574.044 960.141,575.412C960.061,578.637 961.038,585.504 955.309,593.688C945.211,608.111 927.162,605.058 927.162,605.058C927.136,606.043 926.993,608.384 926.909,610.775C926.771,614.888 929.419,618.58 933.359,619.768C939.718,621.77 947.095,621.725 957.377,610.395C968.519,598.117 970.166,574.733 970.352,565.056C970.381,562.492 972.161,560.281 974.66,559.706C974.659,559.702 974.66,559.702 974.66,559.702C977.637,559.016 980.678,560.561 981.88,563.369C982.697,565.28 983.445,567.026 983.445,567.026C983.445,567.026 983.454,567.186 983.465,567.492ZM1026.35,685.877L1017.05,687.625C1017.13,686.138 1016.84,684.774 1016.16,683.534C1015.49,682.294 1014.35,681.318 1012.72,680.605L1012.67,680.58C1010.59,679.666 1008.68,679.617 1006.93,680.431C1005.18,681.245 1003.79,682.844 1002.74,685.228L998.714,694.383L1018.74,703.185L1020.68,698.779L1014.27,695.962L1015.79,692.501L1024.08,691.026L1026.35,685.877ZM1010.99,685.169C1011.85,685.546 1012.41,686.139 1012.67,686.947C1012.93,687.755 1012.82,688.702 1012.34,689.789L1010.38,694.252L1004.63,691.725L1006.55,687.348C1007.03,686.261 1007.64,685.517 1008.39,685.116C1009.13,684.715 1009.98,684.724 1010.93,685.144L1010.99,685.169ZM1033.16,662.755L1028.94,661.606L1026.08,672.13L1009.19,667.534L1007.93,672.177L1029.04,677.922L1033.16,662.755ZM1026.35,633.28L1026.29,633.273C1024.76,633.097 1023.3,633.212 1021.92,633.62C1020.54,634.028 1019.31,634.688 1018.22,635.6C1017.13,636.513 1016.23,637.646 1015.51,639.001C1014.8,640.355 1014.35,641.881 1014.15,643.578L1013.18,652.054L1034.91,654.555L1035.88,646.08C1036.08,644.382 1035.98,642.793 1035.58,641.311C1035.19,639.829 1034.56,638.52 1033.71,637.383C1032.85,636.247 1031.8,635.323 1030.54,634.612C1029.28,633.9 1027.88,633.457 1026.35,633.28ZM1025.84,638.286C1026.81,638.398 1027.67,638.659 1028.42,639.071C1029.17,639.482 1029.8,640.005 1030.31,640.641C1030.83,641.277 1031.19,642.017 1031.41,642.859C1031.63,643.702 1031.68,644.61 1031.57,645.583L1031.14,649.277L1018.04,647.769L1018.47,644.075C1018.58,643.102 1018.84,642.231 1019.26,641.461C1019.67,640.69 1020.2,640.054 1020.85,639.552C1021.49,639.049 1022.24,638.684 1023.08,638.456C1023.92,638.228 1024.82,638.169 1025.77,638.278L1025.84,638.286ZM1023.62,618.995L1025.49,620.474L1027.86,620.62L1027.03,622.847L1027.62,625.149L1025.25,625.046L1023.24,626.323L1022.61,624.032L1020.77,622.519L1022.75,621.207L1023.62,618.995ZM876.062,614.801C882.329,596.636 873.285,589.936 867.594,592.158C856.722,598.773 857.037,616.098 856.777,624.387L856.909,624.379C863.286,623.969 874.015,620.733 876.062,614.801ZM942.782,587.44C944.909,584.199 952.141,565.944 939.815,563.99C935.794,563.353 928.175,565.876 927.162,596.471C927.162,596.471 936.236,597.413 942.782,587.44ZM1020.18,563.708C1020.18,563.708 1017.68,552.099 1014.64,549.722C1014.23,549.399 1012.42,548.845 1012.28,549.722C1011.82,552.71 1010.78,555.815 1010.79,557.6C1010.8,558.322 1012.59,558.845 1013.09,562.212C1013.83,567.227 1006.08,564.799 1003.81,575.184C1003.12,578.304 1004.87,586.025 1006.21,587.439C1007.17,588.461 1010.42,588.558 1012.28,588.381C1014.52,587.935 1019.44,585.847 1020.56,576.306C1020.99,572.561 1020.31,565.271 1020.18,563.708ZM973.457,508.789C973.457,508.789 981.619,488.394 980.765,487.707C951.053,463.843 913.326,449.558 872.289,449.558C806.403,449.558 749.05,486.379 719.702,540.548L736.325,553.695C761.585,504.266 813.012,470.392 872.289,470.392C911.086,470.392 946.521,484.903 973.457,508.789ZM843.903,517.773L853.298,523.679L864.382,523.132L861.669,533.892L865.614,544.264L854.542,545.009L845.897,551.966L841.767,541.666L832.479,535.594L840.998,528.483L843.903,517.773Z" style="fill:rgb(23,23,20);"/>
        </g>
    </g>
</svg>
